<svg width="224" height="22" viewBox="0 0 224 22" fill="none" xmlns="http://www.w3.org/2000/svg">
<path d="M39.906 6.298V16H38.632V8.258L35.538 16H34.404L31.296 8.286V16H30.022V6.298H31.548L34.992 14.446L38.38 6.298H39.906ZM45.0939 8.216C45.8405 8.216 46.4705 8.40267 46.9839 8.776C47.5065 9.14933 47.8705 9.64867 48.0759 10.274V8.314H49.3499V16H48.0759V14.04C47.8705 14.6653 47.5065 15.1647 46.9839 15.538C46.4705 15.9113 45.8405 16.098 45.0939 16.098C44.4125 16.098 43.8059 15.9393 43.2739 15.622C42.7419 15.3047 42.3219 14.852 42.0139 14.264C41.7152 13.6667 41.5659 12.9667 41.5659 12.164C41.5659 11.3613 41.7152 10.6613 42.0139 10.064C42.3219 9.46667 42.7419 9.00933 43.2739 8.692C43.8059 8.37467 44.4125 8.216 45.0939 8.216ZM45.4579 9.35C44.6739 9.35 44.0439 9.602 43.5679 10.106C43.1012 10.6007 42.8679 11.2867 42.8679 12.164C42.8679 13.0413 43.1012 13.732 43.5679 14.236C44.0439 14.7307 44.6739 14.978 45.4579 14.978C45.9619 14.978 46.4099 14.8613 46.8019 14.628C47.2032 14.3947 47.5159 14.068 47.7399 13.648C47.9639 13.2187 48.0759 12.724 48.0759 12.164C48.0759 11.604 47.9639 11.1093 47.7399 10.68C47.5159 10.2507 47.2032 9.924 46.8019 9.7C46.4099 9.46667 45.9619 9.35 45.4579 9.35ZM53.7855 8.216C54.6535 8.216 55.3488 8.44467 55.8715 8.902C56.4035 9.35 56.7255 9.95667 56.8375 10.722H55.6195C55.5635 10.2647 55.3721 9.89133 55.0455 9.602C54.7281 9.30333 54.2988 9.154 53.7575 9.154C53.3001 9.154 52.9408 9.266 52.6795 9.49C52.4275 9.70467 52.3015 9.99867 52.3015 10.372C52.3015 10.652 52.3855 10.8807 52.5535 11.058C52.7308 11.226 52.9455 11.3567 53.1975 11.45C53.4588 11.534 53.8135 11.6273 54.2615 11.73C54.8308 11.8607 55.2881 11.996 55.6335 12.136C55.9881 12.2667 56.2868 12.4813 56.5295 12.78C56.7815 13.0787 56.9075 13.48 56.9075 13.984C56.9075 14.6093 56.6695 15.118 56.1935 15.51C55.7268 15.902 55.1015 16.098 54.3175 16.098C53.4028 16.098 52.6561 15.8787 52.0775 15.44C51.4988 15.0013 51.1581 14.39 51.0555 13.606H52.2875C52.3341 14.0727 52.5348 14.4507 52.8895 14.74C53.2535 15.0293 53.7295 15.174 54.3175 15.174C54.7561 15.174 55.0968 15.062 55.3395 14.838C55.5915 14.614 55.7175 14.32 55.7175 13.956C55.7175 13.6573 55.6288 13.4193 55.4515 13.242C55.2741 13.0647 55.0548 12.9293 54.7935 12.836C54.5321 12.7427 54.1728 12.6447 53.7155 12.542C53.1461 12.4113 52.6888 12.2807 52.3435 12.15C52.0075 12.0193 51.7181 11.814 51.4755 11.534C51.2421 11.2447 51.1255 10.8573 51.1255 10.372C51.1255 9.728 51.3635 9.21 51.8395 8.818C52.3155 8.41667 52.9641 8.216 53.7855 8.216ZM65.4419 8.314V16H64.1679V14.194C63.9719 14.8193 63.6219 15.3 63.1179 15.636C62.6232 15.9627 62.0446 16.126 61.3819 16.126C60.4952 16.126 59.7766 15.8413 59.2259 15.272C58.6752 14.6933 58.3999 13.8673 58.3999 12.794V8.314H59.6739V12.668C59.6739 13.4333 59.8699 14.026 60.2619 14.446C60.6539 14.8567 61.1859 15.062 61.8579 15.062C62.5579 15.062 63.1179 14.838 63.5379 14.39C63.9579 13.9327 64.1679 13.27 64.1679 12.402V8.314H65.4419ZM71.6969 16L68.7569 12.542V16H67.4829V5.64H68.7569V11.66L71.6549 8.314H73.2089L69.7649 12.136L73.2929 16H71.6969ZM81.0236 8.216C81.7702 8.216 82.4002 8.40267 82.9136 8.776C83.4362 9.14933 83.8002 9.64867 84.0056 10.274V5.64H85.2796V16H84.0056V14.04C83.8002 14.6653 83.4362 15.1647 82.9136 15.538C82.4002 15.9113 81.7702 16.098 81.0236 16.098C80.3422 16.098 79.7356 15.9393 79.2036 15.622C78.6716 15.3047 78.2516 14.852 77.9436 14.264C77.6449 13.6667 77.4956 12.9667 77.4956 12.164C77.4956 11.3613 77.6449 10.6613 77.9436 10.064C78.2516 9.46667 78.6716 9.00933 79.2036 8.692C79.7356 8.37467 80.3422 8.216 81.0236 8.216ZM81.3876 9.35C80.6036 9.35 79.9736 9.602 79.4976 10.106C79.0309 10.6007 78.7976 11.2867 78.7976 12.164C78.7976 13.0413 79.0309 13.732 79.4976 14.236C79.9736 14.7307 80.6036 14.978 81.3876 14.978C81.8916 14.978 82.3396 14.8613 82.7316 14.628C83.1329 14.3947 83.4456 14.068 83.6696 13.648C83.8936 13.2187 84.0056 12.724 84.0056 12.164C84.0056 11.604 83.8936 11.1093 83.6696 10.68C83.4456 10.2507 83.1329 9.924 82.7316 9.7C82.3396 9.46667 81.8916 9.35 81.3876 9.35ZM94.3772 11.73C94.3772 12.0007 94.3585 12.234 94.3212 12.43H88.1752C88.2032 13.3073 88.4505 13.9653 88.9172 14.404C89.3932 14.8427 89.9718 15.062 90.6532 15.062C91.2692 15.062 91.7825 14.908 92.1932 14.6C92.6132 14.2827 92.8698 13.8627 92.9632 13.34H94.3212C94.2278 13.872 94.0178 14.348 93.6912 14.768C93.3738 15.188 92.9585 15.5147 92.4452 15.748C91.9318 15.9813 91.3532 16.098 90.7092 16.098C89.9718 16.098 89.3185 15.9393 88.7492 15.622C88.1798 15.3047 87.7318 14.852 87.4052 14.264C87.0878 13.6667 86.9292 12.9667 86.9292 12.164C86.9292 11.3613 87.0878 10.6613 87.4052 10.064C87.7318 9.46667 88.1798 9.00933 88.7492 8.692C89.3185 8.37467 89.9718 8.216 90.7092 8.216C91.4558 8.216 92.1045 8.37467 92.6552 8.692C93.2152 9.00933 93.6398 9.434 93.9292 9.966C94.2278 10.498 94.3772 11.086 94.3772 11.73ZM93.0892 11.814C93.1172 11.2447 93.0238 10.7687 92.8092 10.386C92.5945 10.0033 92.3005 9.71867 91.9272 9.532C91.5538 9.34533 91.1478 9.252 90.7092 9.252C90.0092 9.252 89.4212 9.47133 88.9452 9.91C88.4692 10.3393 88.2125 10.974 88.1752 11.814H93.0892ZM100.089 8.188C100.985 8.188 101.709 8.47733 102.259 9.056C102.81 9.62533 103.085 10.4513 103.085 11.534V16H101.811V11.646C101.811 10.8807 101.615 10.2927 101.223 9.882C100.831 9.47133 100.299 9.266 99.6275 9.266C98.9275 9.266 98.3675 9.49467 97.9475 9.952C97.5275 10.4 97.3175 11.058 97.3175 11.926V16H96.0435V8.314H97.3175V10.134C97.5135 9.50867 97.8588 9.028 98.3535 8.692C98.8575 8.356 99.4362 8.188 100.089 8.188ZM108.19 8.216C108.936 8.216 109.566 8.40267 110.08 8.776C110.602 9.14933 110.966 9.64867 111.172 10.274V8.314H112.446V16.126C112.446 16.8353 112.296 17.4653 111.998 18.016C111.699 18.5667 111.279 18.996 110.738 19.304C110.196 19.612 109.566 19.766 108.848 19.766C107.812 19.766 106.967 19.514 106.314 19.01C105.66 18.5153 105.245 17.8433 105.068 16.994H106.328C106.477 17.5073 106.757 17.9087 107.168 18.198C107.588 18.4967 108.124 18.646 108.778 18.646C109.468 18.646 110.038 18.422 110.486 17.974C110.943 17.5353 111.172 16.9193 111.172 16.126V14.04C110.966 14.6653 110.602 15.1647 110.08 15.538C109.566 15.9113 108.936 16.098 108.19 16.098C107.508 16.098 106.902 15.9393 106.37 15.622C105.838 15.3047 105.418 14.852 105.11 14.264C104.811 13.6667 104.662 12.9667 104.662 12.164C104.662 11.3613 104.811 10.6613 105.11 10.064C105.418 9.46667 105.838 9.00933 106.37 8.692C106.902 8.37467 107.508 8.216 108.19 8.216ZM108.554 9.35C107.77 9.35 107.14 9.602 106.664 10.106C106.197 10.6007 105.964 11.2867 105.964 12.164C105.964 13.0413 106.197 13.732 106.664 14.236C107.14 14.7307 107.77 14.978 108.554 14.978C109.058 14.978 109.506 14.8613 109.898 14.628C110.299 14.3947 110.612 14.068 110.836 13.648C111.06 13.2187 111.172 12.724 111.172 12.164C111.172 11.604 111.06 11.1093 110.836 10.68C110.612 10.2507 110.299 9.924 109.898 9.7C109.506 9.46667 109.058 9.35 108.554 9.35ZM117.623 8.216C118.37 8.216 119 8.40267 119.513 8.776C120.036 9.14933 120.4 9.64867 120.605 10.274V8.314H121.879V16H120.605V14.04C120.4 14.6653 120.036 15.1647 119.513 15.538C119 15.9113 118.37 16.098 117.623 16.098C116.942 16.098 116.335 15.9393 115.803 15.622C115.271 15.3047 114.851 14.852 114.543 14.264C114.245 13.6667 114.095 12.9667 114.095 12.164C114.095 11.3613 114.245 10.6613 114.543 10.064C114.851 9.46667 115.271 9.00933 115.803 8.692C116.335 8.37467 116.942 8.216 117.623 8.216ZM117.987 9.35C117.203 9.35 116.573 9.602 116.097 10.106C115.631 10.6007 115.397 11.2867 115.397 12.164C115.397 13.0413 115.631 13.732 116.097 14.236C116.573 14.7307 117.203 14.978 117.987 14.978C118.491 14.978 118.939 14.8613 119.331 14.628C119.733 14.3947 120.045 14.068 120.269 13.648C120.493 13.2187 120.605 12.724 120.605 12.164C120.605 11.604 120.493 11.1093 120.269 10.68C120.045 10.2507 119.733 9.924 119.331 9.7C118.939 9.46667 118.491 9.35 117.987 9.35ZM127.953 8.188C128.849 8.188 129.572 8.47733 130.123 9.056C130.673 9.62533 130.949 10.4513 130.949 11.534V16H129.675V11.646C129.675 10.8807 129.479 10.2927 129.087 9.882C128.695 9.47133 128.163 9.266 127.491 9.266C126.791 9.266 126.231 9.49467 125.811 9.952C125.391 10.4 125.181 11.058 125.181 11.926V16H123.907V8.314H125.181V10.134C125.377 9.50867 125.722 9.028 126.217 8.692C126.721 8.356 127.299 8.188 127.953 8.188ZM139.512 8.216C140.259 8.216 140.889 8.40267 141.402 8.776C141.925 9.14933 142.289 9.64867 142.494 10.274V8.314H143.768V16H142.494V14.04C142.289 14.6653 141.925 15.1647 141.402 15.538C140.889 15.9113 140.259 16.098 139.512 16.098C138.831 16.098 138.224 15.9393 137.692 15.622C137.16 15.3047 136.74 14.852 136.432 14.264C136.133 13.6667 135.984 12.9667 135.984 12.164C135.984 11.3613 136.133 10.6613 136.432 10.064C136.74 9.46667 137.16 9.00933 137.692 8.692C138.224 8.37467 138.831 8.216 139.512 8.216ZM139.876 9.35C139.092 9.35 138.462 9.602 137.986 10.106C137.519 10.6007 137.286 11.2867 137.286 12.164C137.286 13.0413 137.519 13.732 137.986 14.236C138.462 14.7307 139.092 14.978 139.876 14.978C140.38 14.978 140.828 14.8613 141.22 14.628C141.621 14.3947 141.934 14.068 142.158 13.648C142.382 13.2187 142.494 12.724 142.494 12.164C142.494 11.604 142.382 11.1093 142.158 10.68C141.934 10.2507 141.621 9.924 141.22 9.7C140.828 9.46667 140.38 9.35 139.876 9.35ZM150.009 16L147.069 12.542V16H145.795V5.64H147.069V11.66L149.967 8.314H151.521L148.077 12.136L151.605 16H150.009ZM159.559 8.314V16H158.285V14.194C158.089 14.8193 157.739 15.3 157.235 15.636C156.74 15.9627 156.162 16.126 155.499 16.126C154.612 16.126 153.894 15.8413 153.343 15.272C152.792 14.6933 152.517 13.8673 152.517 12.794V8.314H153.791V12.668C153.791 13.4333 153.987 14.026 154.379 14.446C154.771 14.8567 155.303 15.062 155.975 15.062C156.675 15.062 157.235 14.838 157.655 14.39C158.075 13.9327 158.285 13.27 158.285 12.402V8.314H159.559ZM165.646 8.188C166.542 8.188 167.265 8.47733 167.816 9.056C168.367 9.62533 168.642 10.4513 168.642 11.534V16H167.368V11.646C167.368 10.8807 167.172 10.2927 166.78 9.882C166.388 9.47133 165.856 9.266 165.184 9.266C164.484 9.266 163.924 9.49467 163.504 9.952C163.084 10.4 162.874 11.058 162.874 11.926V16H161.6V8.314H162.874V10.134C163.07 9.50867 163.415 9.028 163.91 8.692C164.414 8.356 164.993 8.188 165.646 8.188ZM178.535 6.032C179.683 6.032 180.645 6.31667 181.419 6.886C182.203 7.45533 182.731 8.23 183.001 9.21H181.657C181.424 8.61267 181.032 8.132 180.481 7.768C179.94 7.404 179.296 7.222 178.549 7.222C177.877 7.222 177.275 7.38067 176.743 7.698C176.211 8.006 175.791 8.44933 175.483 9.028C175.185 9.60667 175.035 10.288 175.035 11.072C175.035 11.8747 175.189 12.57 175.497 13.158C175.805 13.7367 176.23 14.1847 176.771 14.502C177.322 14.81 177.952 14.964 178.661 14.964C179.268 14.964 179.823 14.8333 180.327 14.572C180.831 14.3107 181.242 13.9327 181.559 13.438C181.886 12.934 182.082 12.346 182.147 11.674H178.269V10.722H183.225V11.898C183.141 12.682 182.899 13.3913 182.497 14.026C182.096 14.6607 181.555 15.1647 180.873 15.538C180.192 15.9113 179.417 16.098 178.549 16.098C177.597 16.098 176.757 15.888 176.029 15.468C175.301 15.0387 174.732 14.446 174.321 13.69C173.92 12.9247 173.719 12.052 173.719 11.072C173.719 10.092 173.92 9.224 174.321 8.468C174.732 7.70267 175.301 7.10533 176.029 6.676C176.757 6.24667 177.593 6.032 178.535 6.032ZM188.438 8.216C189.175 8.216 189.833 8.37467 190.412 8.692C191 9.00933 191.457 9.46667 191.784 10.064C192.12 10.6613 192.288 11.3613 192.288 12.164C192.288 12.9667 192.12 13.6667 191.784 14.264C191.457 14.852 191 15.3047 190.412 15.622C189.833 15.9393 189.175 16.098 188.438 16.098C187.7 16.098 187.038 15.9393 186.45 15.622C185.871 15.3047 185.414 14.852 185.078 14.264C184.742 13.6667 184.574 12.9667 184.574 12.164C184.574 11.3613 184.742 10.6613 185.078 10.064C185.414 9.46667 185.871 9.00933 186.45 8.692C187.038 8.37467 187.7 8.216 188.438 8.216ZM188.438 9.336C187.98 9.336 187.556 9.43867 187.164 9.644C186.781 9.84933 186.468 10.1667 186.226 10.596C185.992 11.016 185.876 11.5387 185.876 12.164C185.876 12.78 185.992 13.3027 186.226 13.732C186.468 14.152 186.781 14.4647 187.164 14.67C187.556 14.8753 187.98 14.978 188.438 14.978C188.895 14.978 189.315 14.8753 189.698 14.67C190.09 14.4647 190.402 14.152 190.636 13.732C190.878 13.3027 191 12.78 191 12.164C191 11.5387 190.878 11.016 190.636 10.596C190.402 10.1667 190.09 9.84933 189.698 9.644C189.315 9.43867 188.895 9.336 188.438 9.336ZM197.434 8.216C198.171 8.216 198.829 8.37467 199.408 8.692C199.996 9.00933 200.453 9.46667 200.78 10.064C201.116 10.6613 201.284 11.3613 201.284 12.164C201.284 12.9667 201.116 13.6667 200.78 14.264C200.453 14.852 199.996 15.3047 199.408 15.622C198.829 15.9393 198.171 16.098 197.434 16.098C196.696 16.098 196.034 15.9393 195.446 15.622C194.867 15.3047 194.41 14.852 194.074 14.264C193.738 13.6667 193.57 12.9667 193.57 12.164C193.57 11.3613 193.738 10.6613 194.074 10.064C194.41 9.46667 194.867 9.00933 195.446 8.692C196.034 8.37467 196.696 8.216 197.434 8.216ZM197.434 9.336C196.976 9.336 196.552 9.43867 196.16 9.644C195.777 9.84933 195.464 10.1667 195.222 10.596C194.988 11.016 194.872 11.5387 194.872 12.164C194.872 12.78 194.988 13.3027 195.222 13.732C195.464 14.152 195.777 14.4647 196.16 14.67C196.552 14.8753 196.976 14.978 197.434 14.978C197.891 14.978 198.311 14.8753 198.694 14.67C199.086 14.4647 199.398 14.152 199.632 13.732C199.874 13.3027 199.996 12.78 199.996 12.164C199.996 11.5387 199.874 11.016 199.632 10.596C199.398 10.1667 199.086 9.84933 198.694 9.644C198.311 9.43867 197.891 9.336 197.434 9.336ZM206.094 8.216C206.841 8.216 207.471 8.40267 207.984 8.776C208.507 9.14933 208.871 9.64867 209.076 10.274V8.314H210.35V16.126C210.35 16.8353 210.201 17.4653 209.902 18.016C209.603 18.5667 209.183 18.996 208.642 19.304C208.101 19.612 207.471 19.766 206.752 19.766C205.716 19.766 204.871 19.514 204.218 19.01C203.565 18.5153 203.149 17.8433 202.972 16.994H204.232C204.381 17.5073 204.661 17.9087 205.072 18.198C205.492 18.4967 206.029 18.646 206.682 18.646C207.373 18.646 207.942 18.422 208.39 17.974C208.847 17.5353 209.076 16.9193 209.076 16.126V14.04C208.871 14.6653 208.507 15.1647 207.984 15.538C207.471 15.9113 206.841 16.098 206.094 16.098C205.413 16.098 204.806 15.9393 204.274 15.622C203.742 15.3047 203.322 14.852 203.014 14.264C202.715 13.6667 202.566 12.9667 202.566 12.164C202.566 11.3613 202.715 10.6613 203.014 10.064C203.322 9.46667 203.742 9.00933 204.274 8.692C204.806 8.37467 205.413 8.216 206.094 8.216ZM206.458 9.35C205.674 9.35 205.044 9.602 204.568 10.106C204.101 10.6007 203.868 11.2867 203.868 12.164C203.868 13.0413 204.101 13.732 204.568 14.236C205.044 14.7307 205.674 14.978 206.458 14.978C206.962 14.978 207.41 14.8613 207.802 14.628C208.203 14.3947 208.516 14.068 208.74 13.648C208.964 13.2187 209.076 12.724 209.076 12.164C209.076 11.604 208.964 11.1093 208.74 10.68C208.516 10.2507 208.203 9.924 207.802 9.7C207.41 9.46667 206.962 9.35 206.458 9.35ZM213.651 5.64V16H212.377V5.64H213.651ZM222.77 11.73C222.77 12.0007 222.751 12.234 222.714 12.43H216.568C216.596 13.3073 216.843 13.9653 217.31 14.404C217.786 14.8427 218.364 15.062 219.046 15.062C219.662 15.062 220.175 14.908 220.586 14.6C221.006 14.2827 221.262 13.8627 221.356 13.34H222.714C222.62 13.872 222.41 14.348 222.084 14.768C221.766 15.188 221.351 15.5147 220.838 15.748C220.324 15.9813 219.746 16.098 219.102 16.098C218.364 16.098 217.711 15.9393 217.142 15.622C216.572 15.3047 216.124 14.852 215.798 14.264C215.48 13.6667 215.322 12.9667 215.322 12.164C215.322 11.3613 215.48 10.6613 215.798 10.064C216.124 9.46667 216.572 9.00933 217.142 8.692C217.711 8.37467 218.364 8.216 219.102 8.216C219.848 8.216 220.497 8.37467 221.048 8.692C221.608 9.00933 222.032 9.434 222.322 9.966C222.62 10.498 222.77 11.086 222.77 11.73ZM221.482 11.814C221.51 11.2447 221.416 10.7687 221.202 10.386C220.987 10.0033 220.693 9.71867 220.32 9.532C219.946 9.34533 219.54 9.252 219.102 9.252C218.402 9.252 217.814 9.47133 217.338 9.91C216.862 10.3393 216.605 10.974 216.568 11.814H221.482Z" fill="#6C6C6C"/>
<path d="M4.6875 10C4.6875 9.00913 4.96051 8.08088 5.4348 7.28608V3.91467H2.0634C0.725313 5.65249 0 7.77042 0 10C0 12.2296 0.725313 14.3476 2.0634 16.0854H5.4348V12.714C4.96051 11.9192 4.6875 10.9909 4.6875 10Z" fill="#FBBD00"/>
<path d="M10 15.3123L7.65625 17.656L10 19.9998C12.2296 19.9998 14.3475 19.2744 16.0854 17.9364V14.5685H12.7175C11.9158 15.0446 10.9836 15.3123 10 15.3123Z" fill="#0F9D58"/>
<path d="M5.43484 12.7139L2.06343 16.0853C2.32835 16.4294 2.61683 16.7589 2.92898 17.0711C4.81773 18.9598 7.32894 20 10 20V15.3125C8.06159 15.3125 6.36265 14.2687 5.43484 12.7139Z" fill="#31AA52"/>
<path d="M20 9.99979C20 9.3914 19.9449 8.78187 19.8363 8.18819L19.7483 7.70776H10V12.3953H14.7442C14.2835 13.3117 13.5752 14.0594 12.7175 14.5686L16.0853 17.9364C16.4294 17.6715 16.7589 17.383 17.0711 17.0709C18.9598 15.1821 20 12.6709 20 9.99979Z" fill="#3C79E6"/>
<path d="M13.7565 6.24348L14.1708 6.65777L17.4854 3.34324L17.0711 2.92895C15.1823 1.0402 12.6711 0 10 0L7.65625 2.34375L10 4.6875C11.419 4.6875 12.7531 5.24008 13.7565 6.24348Z" fill="#CF2D48"/>
<path d="M10.0001 4.6875V0C7.32898 0 4.81777 1.0402 2.92898 2.92891C2.61683 3.24105 2.32835 3.57055 2.06343 3.91465L5.43484 7.28605C6.36269 5.73125 8.06164 4.6875 10.0001 4.6875Z" fill="#EB4132"/>
</svg>
