<svg width="201" height="45" viewBox="0 0 201 45" fill="none" xmlns="http://www.w3.org/2000/svg">
<path d="M15.083 36.3349C9.01376 35.9916 4.18121 30.9455 4.18121 24.7912C4.18121 18.4154 9.36791 13.2283 15.7432 13.2283C18.5945 13.2283 21.3324 14.2745 23.4526 16.1742C25.9012 18.3644 27.306 21.5055 27.306 24.7912C27.306 27.5467 26.3175 30.2001 24.5539 32.2771C25.8048 33.0875 27.2408 33.5717 28.7374 33.6821C30.5384 31.0601 31.4872 28.0008 31.4872 24.7912C31.4872 21.3525 30.3986 18.0863 28.3392 15.3457C26.7027 13.1673 24.5248 11.4427 22.0407 10.3582C20.6638 9.75602 19.2242 9.35989 17.7414 9.17302C20.7386 6.96663 21.8847 5.11739 21.8847 3.50448C21.8847 1.56899 20.3158 0 18.3803 0C17.3286 0 16.3859 0.463854 15.7435 1.19738C15.1012 0.463854 14.1584 0 13.1068 0C11.1713 0 9.60231 1.56899 9.60231 3.50448C9.60231 5.11765 10.7488 6.96716 13.7471 9.17399C6.00532 10.158 0 16.7865 0 24.7912C0 33.472 7.06231 40.5344 15.7432 40.5344C16.9434 40.5344 18.1216 40.4013 19.2686 40.1387C17.6927 39.0966 16.2773 37.8139 15.083 36.3349Z" fill="#E78A6E"/>
<path d="M29.3966 9.04812C28.1964 9.04812 27.0181 9.18128 25.8711 9.44372C27.447 10.4859 28.8624 11.7686 30.0568 13.2476C36.1261 13.591 40.9586 18.637 40.9586 24.7912C40.9586 31.167 35.772 36.3541 29.3967 36.3541C26.5455 36.3541 23.8076 35.3079 21.6872 33.4082C19.2386 31.218 17.8338 28.0769 17.8338 24.7912C17.8338 22.0357 18.8223 19.3822 20.5859 17.3053C19.3351 16.4948 17.8991 16.0107 16.4025 15.9003C14.6013 18.5222 13.6526 21.5814 13.6526 24.7911C13.6526 28.2299 14.7411 31.496 16.8007 34.2366C18.4371 36.4151 20.615 38.1396 23.0992 39.2241C25.0872 40.0936 27.2057 40.5343 29.3967 40.5343C38.0775 40.5343 45.1398 33.472 45.1398 24.7911C45.1397 16.1104 38.0774 9.04812 29.3966 9.04812Z" fill="#FFD1C4"/>
<path d="M70.29 29.93H60.385L58.635 34.9H53.42L62.52 10.47H68.155L77.22 34.9H72.005L70.29 29.93ZM68.96 26.185L65.32 15.755L61.68 26.185H68.96Z" fill="black"/>
<path d="M83.4185 9V34.9H78.4835V9H83.4185Z" fill="black"/>
<path d="M94.078 15.265C95.7113 15.265 97.1113 15.65 98.278 16.42C99.4446 17.19 100.273 18.2283 100.763 19.535V15.51H105.663V34.9H100.763V30.84C100.273 32.1467 99.4446 33.1967 98.278 33.99C97.1113 34.76 95.7113 35.145 94.078 35.145C92.4446 35.145 90.9746 34.7483 89.668 33.955C88.3613 33.1617 87.3346 32.0183 86.588 30.525C85.8646 29.0083 85.503 27.235 85.503 25.205C85.503 23.175 85.8646 21.4133 86.588 19.92C87.3346 18.4033 88.3613 17.2483 89.668 16.455C90.9746 15.6617 92.4446 15.265 94.078 15.265ZM95.618 19.57C94.078 19.57 92.8413 20.0717 91.908 21.075C90.9746 22.0783 90.508 23.455 90.508 25.205C90.508 26.955 90.9746 28.3317 91.908 29.335C92.8413 30.315 94.078 30.805 95.618 30.805C97.1113 30.805 98.3363 30.3033 99.293 29.3C100.273 28.2733 100.763 26.9083 100.763 25.205C100.763 23.4783 100.273 22.1133 99.293 21.11C98.3363 20.0833 97.1113 19.57 95.618 19.57Z" fill="black"/>
<path d="M120.32 15.265C121.954 15.265 123.424 15.6617 124.73 16.455C126.037 17.2483 127.052 18.4033 127.775 19.92C128.522 21.4133 128.895 23.175 128.895 25.205C128.895 27.235 128.522 29.0083 127.775 30.525C127.052 32.0183 126.037 33.1617 124.73 33.955C123.424 34.7483 121.954 35.145 120.32 35.145C118.687 35.145 117.287 34.76 116.12 33.99C114.977 33.1967 114.16 32.1467 113.67 30.84V44.14H108.735V15.51H113.67V19.535C114.16 18.2283 114.977 17.19 116.12 16.42C117.287 15.65 118.687 15.265 120.32 15.265ZM118.78 19.57C117.287 19.57 116.05 20.0833 115.07 21.11C114.114 22.1133 113.635 23.4783 113.635 25.205C113.635 26.9083 114.114 28.2733 115.07 29.3C116.05 30.3033 117.287 30.805 118.78 30.805C120.32 30.805 121.557 30.315 122.49 29.335C123.424 28.3317 123.89 26.955 123.89 25.205C123.89 23.455 123.424 22.0783 122.49 21.075C121.557 20.0717 120.32 19.57 118.78 19.57Z" fill="black"/>
<path d="M149.223 24.47C149.223 24.96 149.164 25.52 149.048 26.15H134.838C134.908 27.8767 135.374 29.1483 136.238 29.965C137.101 30.7817 138.174 31.19 139.458 31.19C140.601 31.19 141.546 30.91 142.293 30.35C143.063 29.79 143.553 29.0317 143.763 28.075H148.978C148.721 29.4283 148.173 30.6417 147.333 31.715C146.493 32.7883 145.408 33.6283 144.078 34.235C142.771 34.8417 141.313 35.145 139.703 35.145C137.813 35.145 136.133 34.7483 134.663 33.955C133.193 33.1383 132.049 31.9833 131.233 30.49C130.416 28.9967 130.008 27.235 130.008 25.205C130.008 23.175 130.416 21.4133 131.233 19.92C132.049 18.4033 133.193 17.2483 134.663 16.455C136.133 15.6617 137.813 15.265 139.703 15.265C141.616 15.265 143.284 15.6617 144.708 16.455C146.154 17.2483 147.263 18.345 148.033 19.745C148.826 21.1217 149.223 22.6967 149.223 24.47ZM144.253 23.98C144.323 22.3933 143.903 21.1917 142.993 20.375C142.106 19.5583 141.009 19.15 139.703 19.15C138.373 19.15 137.253 19.5583 136.343 20.375C135.433 21.1917 134.931 22.3933 134.838 23.98H144.253Z" fill="black"/>
<path d="M158.011 15.265C160.368 15.265 162.258 15.86 163.681 17.05C165.104 18.24 165.991 19.8267 166.341 21.81H161.721C161.534 20.8767 161.114 20.13 160.461 19.57C159.808 19.01 158.956 18.73 157.906 18.73C157.066 18.73 156.413 18.9283 155.946 19.325C155.479 19.7217 155.246 20.2583 155.246 20.935C155.246 21.4717 155.433 21.9033 155.806 22.23C156.179 22.5567 156.646 22.8133 157.206 23C157.766 23.1867 158.571 23.4083 159.621 23.665C161.091 23.9917 162.281 24.3417 163.191 24.715C164.124 25.065 164.918 25.6367 165.571 26.43C166.248 27.2 166.586 28.25 166.586 29.58C166.586 31.2367 165.933 32.5783 164.626 33.605C163.343 34.6317 161.604 35.145 159.411 35.145C156.891 35.145 154.873 34.585 153.356 33.465C151.839 32.3217 150.918 30.7 150.591 28.6H155.316C155.433 29.5567 155.853 30.315 156.576 30.875C157.299 31.4117 158.244 31.68 159.411 31.68C160.251 31.68 160.893 31.4817 161.336 31.085C161.779 30.665 162.001 30.1283 162.001 29.475C162.001 28.915 161.803 28.46 161.406 28.11C161.033 27.76 160.554 27.4917 159.971 27.305C159.411 27.1183 158.606 26.8967 157.556 26.64C156.109 26.3133 154.931 25.9867 154.021 25.66C153.134 25.31 152.364 24.7617 151.711 24.015C151.081 23.2683 150.766 22.2417 150.766 20.935C150.766 19.255 151.408 17.89 152.691 16.84C153.974 15.79 155.748 15.265 158.011 15.265Z" fill="black"/>
<path d="M179.221 30.665V34.9H176.631C174.461 34.9 172.793 34.375 171.626 33.325C170.483 32.275 169.911 30.525 169.911 28.075V19.675H167.216V15.51H169.911V10.715H174.846V15.51H179.186V19.675H174.846V28.145C174.846 29.0783 175.033 29.7317 175.406 30.105C175.78 30.4783 176.41 30.665 177.296 30.665H179.221Z" fill="black"/>
<path d="M188.968 15.265C190.601 15.265 192.001 15.65 193.168 16.42C194.334 17.19 195.163 18.2283 195.653 19.535V15.51H200.553V34.9H195.653V30.84C195.163 32.1467 194.334 33.1967 193.168 33.99C192.001 34.76 190.601 35.145 188.968 35.145C187.334 35.145 185.864 34.7483 184.558 33.955C183.251 33.1617 182.224 32.0183 181.478 30.525C180.754 29.0083 180.393 27.235 180.393 25.205C180.393 23.175 180.754 21.4133 181.478 19.92C182.224 18.4033 183.251 17.2483 184.558 16.455C185.864 15.6617 187.334 15.265 188.968 15.265ZM190.508 19.57C188.968 19.57 187.731 20.0717 186.798 21.075C185.864 22.0783 185.398 23.455 185.398 25.205C185.398 26.955 185.864 28.3317 186.798 29.335C187.731 30.315 188.968 30.805 190.508 30.805C192.001 30.805 193.226 30.3033 194.183 29.3C195.163 28.2733 195.653 26.9083 195.653 25.205C195.653 23.4783 195.163 22.1133 194.183 21.11C193.226 20.0833 192.001 19.57 190.508 19.57Z" fill="black"/>
</svg>
